Coordinates
version=1
nRows=43
nColumns=12
inDegrees=yes

Units are S.I. units (second, meters, Newtons, ...)
Angles are in degrees

endheader
time	SC_y	SC_z	SC_x	AC_y	AC_z	AC_x	GH_y	GH_z	GH_yy	EL_x	PS_y
       0.0              -32.05           1.84          73.86          53.97          5.783         -17.31         -24.07          10.94         -131.2          115.7          106.5
   0.01626              -32.04           1.84          73.85          53.96          5.781         -17.31         -24.08          10.93         -131.1          115.7          106.5
   0.03252              -32.04           1.84          73.85          53.96          5.778         -17.31         -24.09          10.93         -131.1          115.7          106.5
   0.04879              -32.04          1.839          73.84          53.96          5.775         -17.31          -24.1          10.93         -131.1          115.6          106.5
   0.06505              -32.04          1.839          73.84          53.95          5.772          -17.3         -24.11          10.92         -131.0          115.6          106.5
   0.08131              -32.04          1.839          73.83          53.95          5.769          -17.3         -24.12          10.91         -131.0          115.6          106.4
   0.09757              -32.03          1.839          73.82          53.94          5.766          -17.3         -24.13          10.91         -131.0          115.6          106.4
    0.1138              -32.03          1.839          73.82          53.94          5.762          -17.3         -24.15           10.9         -130.9          115.6          106.4
    0.1301              -32.03          1.839          73.81          53.93          5.759          -17.3         -24.16           10.9         -130.9          115.6          106.4
    0.1464              -32.02          1.839           73.8          53.93          5.755          -17.3         -24.18          10.89         -130.9          115.5          106.3
    0.1626              -32.02          1.839          73.79          53.92           5.75         -17.29          -24.2          10.88         -130.8          115.5          106.3
    0.1789              -32.02          1.838          73.78          53.91          5.745         -17.29         -24.21          10.87         -130.8          115.5          106.3
    0.1951              -32.01          1.838          73.77          53.91           5.74         -17.29         -24.23          10.86         -130.7          115.5          106.3
    0.2114              -32.01          1.838          73.76           53.9          5.735         -17.29         -24.26          10.85         -130.7          115.4          106.2
    0.2277               -32.0          1.838          73.75          53.89          5.729         -17.28         -24.28          10.84         -130.6          115.4          106.2
    0.2439               -32.0          1.838          73.74          53.88          5.722         -17.28         -24.31          10.83         -130.5          115.4          106.2
    0.2602              -31.99          1.838          73.72          53.87          5.715         -17.28         -24.33          10.82         -130.5          115.4          106.1
    0.2765              -31.99          1.837          73.71          53.86          5.708         -17.27         -24.36           10.8         -130.4          115.3          106.1
    0.2927              -31.98          1.837          73.69          53.85          5.699         -17.27          -24.4          10.79         -130.3          115.3          106.0
     0.309              -31.97          1.837          73.67          53.84           5.69         -17.26         -24.43          10.77         -130.2          115.2          106.0
    0.3252              -31.96          1.836          73.65          53.82           5.68         -17.26         -24.47          10.75         -130.1          115.2          105.9
    0.3415              -31.95          1.836          73.63          53.81          5.669         -17.25         -24.51          10.73         -130.0          115.1          105.8
    0.3578              -31.94          1.836           73.6          53.79          5.657         -17.25         -24.56          10.71         -129.9          115.1          105.8
     0.374              -31.93          1.835          73.58          53.77          5.644         -17.24         -24.62          10.69         -129.7          115.0          105.7
    0.3903              -31.92          1.835          73.55          53.75          5.628         -17.23         -24.68          10.66         -129.6          114.9          105.6
    0.4066              -31.91          1.834          73.51          53.72          5.612         -17.23         -24.74          10.63         -129.4          114.9          105.5
    0.4228              -31.89          1.834          73.48           53.7          5.593         -17.22         -24.81           10.6         -129.2          114.8          105.4
    0.4391              -31.88          1.833          73.43          53.67          5.572         -17.21          -24.9          10.56         -129.0          114.7          105.3
    0.4553              -31.86          1.832          73.38          53.63          5.548         -17.19         -24.99          10.52         -128.8          114.6          105.1
    0.4716              -31.84          1.831          73.33          53.59          5.521         -17.18          -25.1          10.47         -128.5          114.4          104.9
    0.4879              -31.81           1.83          73.27          53.55           5.49         -17.17         -25.22          10.41         -128.2          114.3          104.8
    0.5041              -31.78          1.829           73.2           53.5          5.454         -17.15         -25.36          10.35         -127.8          114.1          104.5
    0.5204              -31.75          1.828          73.11          53.44          5.413         -17.13         -25.52          10.27         -127.4          113.9          104.3
    0.5367              -31.71          1.826          73.02          53.37          5.366         -17.11         -25.71          10.19         -126.9          113.7          104.0
    0.5529              -31.67          1.825          72.91          53.29           5.31         -17.08         -25.93          10.09         -126.3          113.4          103.7
    0.5692              -31.61          1.823          72.77           53.2          5.244         -17.05         -26.19          9.969         -125.7          113.1          103.3
    0.5854              -31.55           1.82          72.62          53.09          5.166         -17.01         -26.49          9.828         -124.9          112.8          102.8
    0.6017              -31.47          1.817          72.43          52.95          5.073         -16.96         -26.86           9.66         -123.9          112.3          102.3
     0.618              -31.38          1.814           72.2          52.79          4.959         -16.91         -27.31          9.456         -122.8          111.8          101.6
    0.6342              -31.27          1.809          71.92          52.59          4.821         -16.84         -27.85          9.207         -121.4          111.1          100.8
    0.6505              -31.13          1.804          71.58          52.35           4.65         -16.76         -28.52          8.899         -119.6          110.3          99.74
    0.6668              -30.96          1.797          71.15          52.05          4.437         -16.65         -29.36          8.516         -117.5          109.3          98.47
     0.683              -30.75          1.789          70.61          51.66          4.169         -16.52         -30.42          8.033         -114.7          108.1          96.87
